<svg width="800" height="800" viewBox="0 0 24 24" xmlns="http://www.w3.org/2000/svg" xmlns:xlink="http://www.w3.org/1999/xlink"><defs><path id="a" d="M4.293 1.707A1 1 0 0 1 5.707.293l2 2a1 1 0 0 1-1.414 1.414l-2-2zM0 8h16v2H0V8z"/><path id="c" d="m11 9.586 2.293-2.293a1 1 0 0 1 1.414 1.414l-4 4a1 1 0 0 1-1.414 0l-4-4a1 1 0 0 1 1.414-1.414L9 9.586V.999a1 1 0 0 1 2 0v8.587zM18 16v-6a1 1 0 0 1 2 0v7a1 1 0 0 1-1 1H1a1 1 0 0 1-1-1v-7a1 1 0 1 1 2 0v6h16z"/></defs><g fill="none" fill-rule="evenodd" transform="translate(2 3)"><g transform="translate(2 6)"><mask id="b" fill="#fff"><use xlink:href="#a"/></mask><use fill="#D8D8D8" fill-rule="nonzero" xlink:href="#a"/><g fill="#FFA0A0" mask="url(#b)"><path d="M-4-9h24v24H-4z"/></g></g><mask id="d" fill="#fff"><use xlink:href="#c"/></mask><use fill="#000" fill-rule="nonzero" xlink:href="#c"/><g fill="#7600FF" mask="url(#d)"><path d="M-2-3h24v24H-2z"/></g></g></svg>